<svg id="Layer_1" xmlns="http://www.w3.org/2000/svg" xmlns:xlink="http://www.w3.org/1999/xlink" viewBox="0 0 455 455" style="enable-background:new 0 0 455 455"><g><path d="M183.936 183.935h87.129v87.13H183.936z"/><path d="M327.801.0h-30v92.546H242.5V0h-30v92.546h-55.301V0h-30v92.546H92.546v269.907h34.653V455h30v-92.546H212.5V455h30v-92.546h55.301V455h30v-92.546h34.653V92.546h-34.653V0zM153.936 301.065v-147.13h147.129v147.13H153.936z"/><path d="M362.454 126.944H455v30H362.454z"/><path d="M362.454 212.246H455v30H362.454z"/><path d="M362.454 297.546H455v30H362.454z"/><path d="M0 126.944h92.546v30H0z"/><path d="M0 212.246h92.546v30H0z"/><path d="M0 297.546h92.546v30H0z"/></g><g/><g/><g/><g/><g/><g/><g/><g/><g/><g/><g/><g/><g/><g/><g/></svg>