<svg id="Capa_1" xmlns="http://www.w3.org/2000/svg" xmlns:xlink="http://www.w3.org/1999/xlink" viewBox="0 0 390 390" style="enable-background:new 0 0 390 390"><g><path d="M161.319 322.763c-17.201.0-31.136 13.933-31.136 31.12.0 17.189 13.935 31.124 31.136 31.124 17.184.0 31.121-13.936 31.121-31.124C192.441 336.696 178.503 322.763 161.319 322.763z"/><path d="M275.685 322.763c-17.193.0-31.13 13.933-31.13 31.12.0 17.189 13.937 31.124 31.13 31.124 17.192.0 31.118-13.936 31.118-31.124C306.803 336.696 292.877 322.763 275.685 322.763z"/><path d="M387.262 112.516c-2.899-4.223-7.699-6.75-12.833-6.75h-55.336c-.321-.715-.653-1.428-1.02-2.13-6.301-12.079-18.138-19.99-31.5-21.305V44.993c0-22.056-17.944-40-40-40h-28c-22.056.0-40 17.944-40 40V82.33c-13.362 1.315-25.199 9.226-31.5 21.305-.366.702-.698 1.415-1.02 2.13H96.162L80.165 64.913c-2.079-5.293-5.805-9.768-10.633-12.758L40.111 33.934C27.782 26.295 11.58 30.097 3.94 42.436-3.699 54.773.108 70.97 12.442 78.61l21.976 13.612 75.851 196.541c2.313 6.011 8.092 9.975 14.532 9.975h187.39c6.44.0 12.22-3.964 14.527-9.975l62.246-161.852C390.803 122.129 390.168 116.742 387.262 112.516zM294.912 130.719l-50.036 71.726c-2.806 4.021-7.399 6.418-12.303 6.418-4.903.0-9.497-2.396-12.303-6.418l-50.036-71.727c-3.197-4.584-3.581-10.564-.996-15.52 2.585-4.955 7.71-8.063 13.299-8.063h21.036V44.993c0-8.284 6.716-15 15-15h28c8.284.0 15 6.716 15 15v62.144h21.036c5.589.0 10.714 3.107 13.299 8.063C298.493 120.154 298.109 126.135 294.912 130.719z"/></g><g/><g/><g/><g/><g/><g/><g/><g/><g/><g/><g/><g/><g/><g/><g/></svg>