<svg id="Layer_1" xmlns="http://www.w3.org/2000/svg" xmlns:xlink="http://www.w3.org/1999/xlink" viewBox="0 0 512.002 512.002" style="enable-background:new 0 0 512.002 512.002"><g><g><path transform="matrix(0.9808 -0.1951 0.1951 0.9808 -50.3631 87.2844)" d="M406.324 145.007h23.173v308.599H406.324z"/></g></g><g><g><path transform="matrix(0.9808 -0.1951 0.1951 0.9808 -47.3079 97.3498)" d="M458.948 134.53h23.173v308.599H458.948z"/></g></g><g><g><path d="M0 99.049V457.58h77.646V99.049H0zM54.065 422.886H23.582V133.744h30.482V422.886z"/></g></g><g><g><path d="M108.132 219.882h98.347v237.692H108.132z"/></g></g><g><g><path d="M108.128 54.422v14.145 120.837h98.343V60.972v-6.55H108.128zm74.147 106.37h-49.949V130.31h49.949v30.482zM182.275 113.516h-49.949V83.034h49.949v30.482z"/></g></g><g><g><path d="M236.955 457.58h108.191V91.454H236.955V457.58zM255.335 351.716h71.43v30.482h-71.43V351.716zm0 47.274h71.43v30.482h-71.43V398.99z"/></g></g><g/><g/><g/><g/><g/><g/><g/><g/><g/><g/><g/><g/><g/><g/><g/></svg>