<svg width="15" height="15" viewBox="0 0 15 15" id="library" xmlns="http://www.w3.org/2000/svg"><path d="M1.0819 9.9388C.9871 9.867 1.0007 9.7479 1.0007 9.7479L1.5259 3.5c0 0 .0082-.0688.0388-.104C1.584 3.374 1.6084 3.342 1.6544 3.3232 2.1826 3.1072 5.0537 1.5519 6.5 3c.2397.2777.4999.6876.4999 1v5.2879c0 0 .0062.1122-.0953.1801-.0239.016-.124.0616-.242.0026-2.2253-1.1134-4.711.1546-5.3381.4871C1.1987 10.0244 1.1006 9.9531 1.0819 9.9388zM13.6754 9.9577c-.6271-.3325-3.1128-1.6005-5.3381-.4871-.118.059-.2181.0134-.242-.0026C7.9939 9.4001 8.0001 9.2879 8.0001 9.2879V4c0-.3124.2602-.7223.4999-1 1.4463-1.4481 4.2991.1071 4.8273.3232.046.0188.0704.0508.0897.0728C13.4476 3.4312 13.4558 3.5 13.4558 3.5l.5435 6.2479c0 0 .0136.1191-.0812.1909C13.8994 9.9531 13.8013 10.0244 13.6754 9.9577zM8.8647 12.6863c.0352-.0085.0964-.0443.1179-.0775.0236-.0364.0378-.0617.0423-.1088.0495-.9379 1.6245-1.8119 4.6477-.0298.0775.0441.1666.0396.2425-.0155C14.0014 12.392 14 12.2859 14 12.2859v-.5542c0 0 3e-4-.0764-.0272-.1184-.0205-.0312-.0476-.0643-.0926-.0858-2.0254-1.3145-4.5858-1.8972-5.8854-.1592-.0181.0423-.0353.0613-.0728.0905C7.8654 11.5028 7.7964 11.5 7.7964 11.5H7.2109c0 0-.069.0028-.1256-.0412-.0375-.0292-.0547-.0482-.0728-.0905-1.2996-1.738-3.86-1.1828-5.8854.1317-.045.0215-.0721.0546-.0926.0858-.0275.042-.0272.1184-.0272.1184v.5542c0 0-.0014.1061.0849.1688.0759.0551.165.0596.2425.0155 3.0232-1.7821 4.5982-.8806 4.6477.0573.0045.0471.0187.0724.0423.1088.0215.0332.0827.069.1179.0775C6.8645 12.8656 7.9112 12.9363 8.8647 12.6863z"/></svg>