<svg xmlns="http://www.w3.org/2000/svg" width="52" height="52" viewBox="0 0 52 52" enable-background="new 0 0 52 52"><path d="M1.908 35V9c0-3.9 3.1-7 7-7h26c3.9.0 7 3.1 7 7v3h-6V9c0-.601-.4-1-1-1h-26c-.6.0-1 .399-1 1v26c0 .6.4 1 1 1h3v6h-3C5.008 42 1.908 38.9 1.908 35z"/><path d="M45.908 16h-26c-2.2.0-4 1.799-4 4v26c0 2.199 1.8 4 4 4h26c2.199.0 4-1.801 4-4V20C49.908 17.799 48.107 16 45.908 16zM41.893 41.184c0 .49-.307.795-.857.795H29.41c-.488.0-1.039-.428-1.039-.918v-1.773c0-.49.551-.979 1.039-.979h4.834c.551.0.795-.613.428-.979l-10.4-10.403c-.367-.367-.367-.918.0-1.285l1.285-1.284c.367-.367.917-.367 1.285.0l10.4 10.4c.367.43.979.123.979-.426v-4.835c0-.552.551-.979 1.041-.979h1.836c.488.0.795.488.795.979V41.184z"/></svg>